# xmcd
#
# Track frame offsets: 
#        150
#        16067
#        31303
#        54261
#        71897
#        85035
#        101986
#        119171
#        132108
#        150736
#        168961
#        189952
#
# Disc length: 2851 seconds
#
# Revision: 1
# Processed by: cddbd v1.5.2PL0 Copyright (c) Steve Scherf et al.
# Submitted via: ExactAudioCopy v0.99pb5
#
DISCID=980b210c
DTITLE=Robert Cray - Heritage Of The Blues
DYEAR=1983
DGENRE=Blues
TTITLE0=Phone Booth
TTITLE1=Don't Touch Me
TTITLE2=Porch Light
TTITLE3=The Last Time (I Get Burned Like This)
TTITLE4=Bad Influence
TTITLE5=Playin' In The Dirt
TTITLE6=Change Of Heart, Change Of Mind (S.O.F.T.)
TTITLE7=Got To Make A Comeback
TTITLE8=The Grinder
TTITLE9=Where Do I Go From Here
TTITLE10=Payin' For It Now
TTITLE11=I've Slipped Her Mind
EXTD=
EXTT0=
EXTT1=
EXTT2=
EXTT3=
EXTT4=
EXTT5=
EXTT6=
EXTT7=
EXTT8=
EXTT9=
EXTT10=
EXTT11=
PLAYORDER=
